<svg width="2057" height="600" viewBox="0 0 2057 600" fill="none" xmlns="http://www.w3.org/2000/svg">
<path fill-rule="evenodd" clip-rule="evenodd" d="M296.438 369.447L179.927 299.235C169.04 292.723 160.036 283.489 153.801 272.44C147.567 261.391 144.317 248.909 144.372 236.223C144.316 223.522 147.572 211.025 153.818 199.966C160.065 188.907 169.086 179.668 179.993 173.159L272.939 117.151C291.501 105.931 312.778 100 334.467 100C356.157 100 377.433 105.931 395.996 117.151L488.942 173.159C499.829 179.671 508.832 188.906 515.066 199.955C521.301 211.003 524.551 223.484 524.498 236.17C524.555 248.872 521.299 261.369 515.053 272.428C508.806 283.488 499.784 292.727 488.877 299.235L372.366 369.434C360.912 376.356 347.785 380.019 334.402 380.025C321.02 380.02 307.894 376.363 296.438 369.447ZM412.517 303.594L447.103 282.752L468.756 269.66L353.999 200.521C348.095 196.952 341.327 195.064 334.428 195.062C327.533 195.066 320.77 196.953 314.87 200.521L200.127 269.66L221.766 282.752L256.353 303.594L314.87 338.851C320.773 342.416 327.538 344.301 334.435 344.301C341.331 344.301 348.096 342.416 353.999 338.851L412.517 303.594ZM291.319 147.682L198.372 203.689H198.359C192.748 207.043 188.107 211.801 184.893 217.494C181.68 223.188 180.004 229.62 180.032 236.158C180.049 237.435 180.132 238.711 180.281 239.98L296.464 169.978C307.919 163.06 321.046 159.403 334.428 159.403C347.81 159.403 360.937 163.06 372.392 169.978L488.576 239.98C488.588 239.851 488.6 239.722 488.612 239.593C488.719 238.456 488.825 237.333 488.825 236.158C488.856 229.619 487.182 223.185 483.968 217.492C480.754 211.798 476.111 207.041 470.497 203.689L377.55 147.682C364.538 139.824 349.628 135.669 334.428 135.664C319.232 135.671 304.327 139.826 291.319 147.682ZM160.919 357.284L179.927 368.74L272.377 424.446C291.102 435.749 312.556 441.728 334.428 441.741C356.293 441.721 377.738 435.737 396.454 424.433L490.356 367.863L490.54 367.732L507.493 357.52C512.683 354.393 516.978 349.977 519.96 344.702C522.942 339.426 524.509 333.469 524.511 327.409V305.597L470.51 338.118L378.126 393.85C364.96 401.806 349.87 406.011 334.487 406.011C319.104 406.011 304.014 401.806 290.848 393.85L198.36 338.118L144.306 305.545V327.801C144.291 333.733 145.814 339.566 148.726 344.734C151.637 349.901 155.838 354.225 160.919 357.284ZM470.51 403.499L399.635 446.192C379.965 458.082 357.419 464.368 334.435 464.368C311.451 464.368 288.904 458.082 269.235 446.192L198.359 403.499L144.372 370.966H144.306V393.104C144.307 399.04 145.842 404.875 148.762 410.043C151.682 415.211 155.888 419.537 160.971 422.6L179.927 434.03L208.466 451.219L215.954 455.736L250.802 476.684C276.033 491.93 304.949 499.992 334.428 500C363.911 499.988 392.83 491.926 418.067 476.684L478.902 440.026L507.322 423.085C512.575 419.952 516.924 415.51 519.946 410.193C522.968 404.876 524.559 398.866 524.563 392.751V370.822L470.51 403.499Z" fill="white"/>
<path fill-rule="evenodd" clip-rule="evenodd" d="M700.813 175.947H644.573V424.08H848.493V374.448H700.813V175.947ZM984.979 175.947L868.861 424.08H928.74L952.304 371.804H1089.76L1113.32 424.08H1173.2L1057.1 175.947H984.979ZM972.883 326.152L1021.03 219.321L1069.18 326.152H972.883ZM1247.14 279.571L1329.18 175.948H1391.7L1275.59 322.774V424.08H1219.35V323.533L1102.57 175.948H1165.1L1247.14 279.571ZM1466.75 321.517H1618.93V278.51H1467.5L1466.83 222.594H1627.54V175.948H1413.74V300.007V424.08H1629.2V377.433H1466.83L1466.75 321.517ZM1912.69 424.08H1846.81L1772.19 329.817H1715.99V424.08H1659.7V175.947H1814C1832.08 175.947 1847.96 179.203 1861.64 185.714C1874.63 191.599 1885.76 200.919 1893.84 212.67C1901.57 224.139 1905.43 237.593 1905.43 253.033C1905.42 268.255 1901.56 281.6 1893.84 293.068C1885.8 304.81 1874.71 314.134 1861.76 320.038C1853.37 323.96 1844.48 326.684 1835.34 328.129L1912.69 424.08ZM1807.43 220.29H1715.93V286.117H1807.43C1820 286.125 1829.98 283.206 1837.37 277.358C1844.76 271.51 1848.46 263.402 1848.46 253.033C1848.44 242.673 1844.74 234.626 1837.37 228.892C1829.99 223.157 1820.01 220.29 1807.43 220.29Z" fill="white"/>
</svg>
