<svg width="1641" height="438" viewBox="0 0 1641 438" fill="none" xmlns="http://www.w3.org/2000/svg">
<path fill-rule="evenodd" clip-rule="evenodd" d="M126.211 44.4644L281.149 133.903C284.511 135.838 288.789 133.393 288.789 129.522V61.0685C288.789 57.4014 286.854 54.0398 283.696 52.2062L195.684 1.37519C192.526 -0.458396 188.655 -0.458396 185.497 1.37519L126.211 35.6021C122.85 37.5375 122.85 42.4271 126.211 44.4644ZM316.802 71.3564L376.088 105.583V105.38C379.246 107.213 381.181 110.575 381.181 114.242V215.904C381.181 219.571 379.246 222.933 376.088 224.766L316.802 258.993C313.44 261.03 309.162 258.484 309.162 254.613V75.7366C309.162 71.8657 313.44 69.421 316.802 71.3564ZM72.0191 182.391V287.007V287.211V361.471C72.0191 365.342 67.7408 367.787 64.3792 365.851L5.09329 331.624C1.93545 329.791 0 326.429 0 322.762V221.1C0 217.433 1.93545 214.071 5.09329 212.238L64.3792 178.011C67.7408 175.974 72.0191 178.52 72.0191 182.391ZM243.052 325.205L309.265 287.005H309.163L373.542 249.824C376.904 247.787 381.182 250.333 381.182 254.204V322.658C381.182 326.325 379.247 329.687 376.089 331.52L288.077 382.351C284.919 384.185 281.048 384.185 277.89 382.351L218.604 348.124C215.243 346.087 215.243 341.197 218.604 339.262L243.052 325.205ZM162.578 88.9824L103.292 54.7555C100.134 52.9219 96.2632 52.9219 93.1053 54.7555L5.09329 105.586C1.93545 107.42 0 110.782 0 114.449V182.903C0 186.774 4.27836 189.32 7.63993 187.283L162.578 97.8447C165.939 95.9093 165.939 91.0197 162.578 88.9824ZM92.3915 376.136V307.683C92.3915 303.812 96.6699 301.367 100.031 303.302L254.969 392.74C258.331 394.778 258.331 399.667 254.969 401.603L195.683 435.83C192.526 437.663 188.655 437.663 185.497 435.83L97.4848 384.999C94.327 383.165 92.3915 379.803 92.3915 376.136Z" fill="white"/>
<path fill-rule="evenodd" clip-rule="evenodd" d="M455.342 219.532C455.342 162.67 491.478 126.401 546.348 126.401C601.483 126.401 638.416 160.81 638.416 217.672C638.416 274.535 602.28 310.804 547.145 310.804C492.01 310.804 455.342 276.395 455.342 219.532ZM494.401 215.945C494.401 251.949 514.064 275.199 546.879 275.199C578.897 275.199 599.357 255.271 599.357 221.392C599.357 185.389 578.366 162.139 546.348 162.139C514.33 162.139 494.401 182.067 494.401 215.945ZM756.528 275.199C723.713 275.199 704.05 251.949 704.05 215.945C704.05 182.067 723.978 162.139 755.997 162.139C780.176 162.139 797.447 174.76 804.887 195.751H845.807C837.171 153.503 803.293 126.401 755.997 126.401C701.127 126.401 664.991 162.67 664.991 219.532C664.991 276.395 701.659 310.804 756.794 310.804C805.286 310.804 839.43 282.506 846.604 236.538H807.412C802.097 260.983 783.365 275.066 756.528 275.066V275.199ZM860.55 132.913H1042.7V169.581H970.289V304.828H933.089V169.581H860.55V132.913ZM1110.19 132.913L1026.36 304.961H1068.74C1075.34 291.397 1081.35 278.3 1087 265.996L1087 265.993L1088.14 263.51H1178.21L1197.88 304.961H1240.26L1156.42 132.913H1110.19ZM1105.54 227.373C1107.4 223.52 1109.13 219.8 1110.72 216.213C1111.65 214.221 1112.58 212.228 1113.51 210.368L1113.78 209.836C1116.77 203.51 1119.4 197.913 1121.64 193.159L1121.66 193.116L1121.72 192.99L1121.73 192.966L1121.74 192.95C1126.4 183.051 1129.31 176.859 1130.12 175.427H1136.63L1161.21 227.373H1105.54ZM1297.78 132.913L1394.5 247.966V132.913H1431.7V304.828H1394.5L1297.51 190.572V304.828H1260.18V132.913H1297.78ZM1514.2 235.079V268.426H1640.42V304.828H1477.01V132.913H1635.77V169.581H1514.2V197.215H1614.11V235.079H1514.2Z" fill="white"/>
</svg>
